<svg xmlns="http://www.w3.org/2000/svg" width="164" height="47" fill="none" viewBox="0 0 164 47">
  <path fill="#fff" d="M19.613 32.904c-1.307 4.107-2.987 7.317-5.04 9.632-2.016 2.315-4.07 3.472-6.16 3.472-3.733 0-5.6-3.36-5.6-10.08 0-2.8.336-5.544 1.008-8.232.71-2.688 1.493-5.003 2.352-6.944.672-1.568 1.867-2.352 3.584-2.352 1.941 0 2.912.859 2.912 2.576 0 .187-.224.915-.672 2.184-2.016 5.45-3.024 9.632-3.024 12.544 0 1.381.112 2.52.336 3.416.261.859.672 1.288 1.232 1.288 1.008 0 2.128-1.139 3.36-3.416 1.27-2.315 2.427-5.059 3.472-8.232 1.083-3.21 1.848-6.01 2.296-8.4.075-.485.43-.915 1.064-1.288.672-.373 1.25-.56 1.736-.56.97 0 1.661.224 2.072.672.41.41.616 1.083.616 2.016 0 .187-.112.765-.336 1.736a304.844 304.844 0 0 0-1.344 7.616c-.299 2.053-.448 3.976-.448 5.768 0 1.195.187 2.184.56 2.968.41.747.915 1.12 1.512 1.12 1.717 0 3.285-2.128 4.704-6.384 1.456-4.256 2.632-8.848 3.528-13.776.15-.97.97-1.456 2.464-1.456.821 0 1.624.15 2.408.448.784.261 1.195.56 1.232.896l-.616 2.856c-1.045 4.89-2.035 8.83-2.968 11.816-.933 2.987-2.333 5.6-4.2 7.84s-4.293 3.36-7.28 3.36c-3.323 0-4.984-2.65-4.984-7.952 0-1.643.15-3.36.448-5.152h-.224Zm31.439 13.272c-3.286 0-5.843-1.12-7.672-3.36-1.83-2.24-2.744-5.096-2.744-8.568 0-2.912.69-5.656 2.072-8.232 1.418-2.576 3.341-4.648 5.768-6.216 2.426-1.568 5.096-2.352 8.008-2.352 2.874 0 5.226.952 7.056 2.856 1.866 1.867 2.8 4.63 2.8 8.288 0 2.576-.71 5.245-2.128 8.008-1.419 2.763-3.323 5.059-5.712 6.888-2.352 1.792-4.835 2.688-7.448 2.688Zm.84-4.48c1.194 0 2.389-.747 3.584-2.24 1.232-1.493 2.24-3.379 3.024-5.656.784-2.277 1.176-4.499 1.176-6.664 0-3.323-1.382-4.984-4.144-4.984-1.531 0-2.931.728-4.2 2.184-1.27 1.456-2.278 3.267-3.024 5.432-.747 2.128-1.12 4.125-1.12 5.992 0 1.083.242 2.09.728 3.024.485.896 1.082 1.605 1.792 2.128.746.523 1.474.784 2.184.784Zm23.341 1.176c-.037.224-.13.672-.28 1.344-.112.635-.43 1.083-.952 1.344-.485.261-1.27.392-2.352.392-1.232 0-2.128-.13-2.688-.392-.56-.261-.84-.821-.84-1.68l2.408-9.576c1.083-4.592 1.886-7.821 2.408-9.688.56-2.65 1.213-4.387 1.96-5.208.747-.859 1.605-1.288 2.576-1.288 1.307 0 2.147.187 2.52.56.41.373.616.859.616 1.456l-.672 3.304a15.764 15.764 0 0 1 4.144-3.584c1.605-.97 3.024-1.456 4.256-1.456 1.605 0 2.856.28 3.752.84.896.56 1.344 1.288 1.344 2.184 0 .672-.43 1.213-1.288 1.624-.821.373-1.904.616-3.248.728-2.016.187-4.088 1.064-6.216 2.632-2.09 1.568-3.659 3.416-4.704 5.544l-2.744 10.92Zm32.153-24.192c.971 0 1.885.187 2.744.56.859.373 1.549.877 2.072 1.512l1.904-7.896c1.12-4.33 1.904-7.579 2.352-9.744.149-.597.541-1.064 1.176-1.4a4.815 4.815 0 0 1 2.184-.504c.635 0 1.344.15 2.128.448.784.299 1.195.728 1.232 1.288-.448 1.83-1.923 7.877-4.424 18.144-2.651 10.565-4.256 17.341-4.816 20.328 0 1.195.131 2.072.392 2.632-.261.672-.877 1.12-1.848 1.344-.971.261-1.811.392-2.52.392-.635 0-1.064-.168-1.288-.504-.224-.299-.411-.747-.56-1.344a32.64 32.64 0 0 0-.336-1.344c-1.568 1.083-3.192 1.904-4.872 2.464-1.643.597-3.024.896-4.144.896s-2.296-.467-3.528-1.4c-1.195-.97-2.203-2.165-3.024-3.584-.784-1.419-1.176-2.744-1.176-3.976 0-2.09.653-4.592 1.96-7.504s3.192-5.432 5.656-7.56c2.501-2.165 5.413-3.248 8.736-3.248Zm.448 19.208c.523-1.232 1.12-3.453 1.792-6.664.635-2.837 1.12-4.835 1.456-5.992-.224-.747-.709-1.232-1.456-1.456-.709-.261-1.381-.392-2.016-.392-1.381 0-2.856.803-4.424 2.408-1.568 1.605-2.893 3.51-3.976 5.712-1.045 2.165-1.568 4.013-1.568 5.544 0 .821.224 1.661.672 2.52.485.821.99 1.232 1.512 1.232.859 0 2.221-.317 4.088-.952 1.904-.672 3.211-1.325 3.92-1.96Z"/>
  <path fill="#6343D8" d="M127.677 11.736c0-1.157.355-2.184 1.064-3.08.747-.896 1.774-1.344 3.08-1.344 1.382 0 2.576.43 3.584 1.288 1.046.859 1.568 1.83 1.568 2.912 0 1.083-.522 2.016-1.568 2.8-1.045.784-2.258 1.176-3.64 1.176-1.344 0-2.37-.336-3.08-1.008-.672-.71-1.008-1.624-1.008-2.744Zm5.88 9.912c-1.978 8.064-3.49 14.13-4.536 18.2a8.09 8.09 0 0 0-.224 1.96l.056 1.568c0 .635-.205 1.083-.616 1.344-.373.261-1.194.41-2.464.448-1.232 0-2.165-.13-2.8-.392-.634-.261-.952-.821-.952-1.68 0-.41.467-2.595 1.4-6.552.971-3.957 2.278-9.11 3.92-15.456l-1.288-1.68a.537.537 0 0 1-.168-.392c0-.373.411-.672 1.232-.896.822-.261 1.96-.392 3.416-.392 1.27 0 2.072.373 2.408 1.12.374.71.579 1.643.616 2.8Zm27.573 16.744c-.448 1.195-1.326 2.408-2.632 3.64-1.307 1.195-2.968 2.184-4.984 2.968-2.016.784-4.219 1.176-6.608 1.176-3.659 0-6.366-.747-8.12-2.24-1.755-1.53-2.632-3.51-2.632-5.936 0-3.51.896-6.757 2.688-9.744 1.792-3.024 4.2-5.413 7.224-7.168s6.253-2.632 9.688-2.632c2.128 0 3.882.635 5.264 1.904 1.418 1.232 2.128 2.912 2.128 5.04 0 .821-.336 1.512-1.008 2.072-.672.523-1.568.784-2.688.784-.896 0-1.512-.205-1.848-.616-.299-.41-.448-.952-.448-1.624l.056-1.288c0-.448-.243-.803-.728-1.064a2.94 2.94 0 0 0-1.568-.448c-1.158 0-2.726.69-4.704 2.072-1.942 1.381-3.659 3.21-5.152 5.488-1.456 2.24-2.184 4.648-2.184 7.224 0 1.045.41 1.848 1.232 2.408.821.56 2.034.84 3.64.84 1.008 0 2.165-.205 3.472-.616 1.306-.41 2.128-.933 2.464-1.568 1.269-2.315 2.426-3.472 3.472-3.472 1.53 0 2.557.299 3.08.896.56.56.858 1.195.896 1.904Z"/>
</svg>
